<?xml version="1.0" encoding="UTF-8"?>
<svg width="260px" height="260px" viewBox="0 0 260 260" xmlns="http://www.w3.org/2000/svg" xmlns:xlink="http://www.w3.org/1999/xlink">
  <g id="Icons" stroke="none" stroke-width="1" fill="none" fill-rule="evenodd">
    <g id="Artboard-Copy-3" fill-rule="nonzero" fill="#0099FF">
      <path d="M120.942226,42.073356 C122.577846,42.0498773 124.216174,42.1205335 125.848423,42.2860941 C127.511247,42.142341 129.194256,42.0689655 130.894459,42.0689655 C132.266091,42.0689655 133.626553,42.1167416 134.974271,42.2107191 C136.923031,42.0512551 138.87834,42.0265894 140.825293,42.1354168 C144.633049,31.0388285 158.719429,19.0000125 169.392813,19 C172.582139,19 175.167585,21.5820819 175.167585,24.7672414 C175.167585,27.9524008 172.582139,30.5344828 169.392829,30.5344828 C164.051591,30.5344828 154.740076,39.3563746 151.877961,44.2413415 C159.048342,46.6257211 165.667509,50.9577799 170.880812,57.1626682 L250.104558,151.454998 C265.124304,169.331543 262.783474,196.003526 244.86702,211.017654 C226.946627,226.035082 200.247181,223.707382 185.22334,205.825963 L184.726188,205.234251 C176.340706,226.751635 155.404093,242 130.894459,242 C105.834276,242 84.5024181,226.052073 76.5122408,203.76027 L74.7766597,205.825963 C59.7528186,223.707382 33.0533729,226.035082 15.1329799,211.017654 C-2.78347364,196.003526 -5.12430419,169.331543 9.8954419,151.454998 L89.1191875,57.1626682 C94.6946998,50.5266775 101.878216,46.032797 109.624284,43.772587 C106.471176,38.8140175 97.5705375,30.5344828 92.3960888,30.5344828 C89.2067794,30.5344828 86.6213332,27.9524008 86.6213332,24.7672414 C86.6213332,21.5820819 89.2067794,19 92.3960888,19 C103.04958,19 117.103366,30.9939846 120.942226,42.073356 Z M177.092504,180.482759 L177.092504,161.258621 L84.6964147,161.258621 L84.6964147,180.482759 L177.092504,180.482759 Z M176.450949,192.017241 L85.3381938,192.017241 C89.0113351,213.84043 108.010375,230.465517 130.894459,230.465517 C153.782582,230.465517 172.778726,213.842097 176.450949,192.017241 Z M177.092504,149.724138 L177.092504,130.5 L84.6964147,130.5 L84.6964147,149.724138 L177.092504,149.724138 Z M177.092504,118.965517 L177.092504,99.7631476 C177.092504,74.2686961 156.408067,53.6034483 130.894459,53.6034483 C105.376586,53.6034483 84.6964147,74.266239 84.6964147,99.7631476 L84.6964147,118.965517 L177.092504,118.965517 Z M73.4568521,93.7484944 L18.7428807,158.86922 C7.82273395,171.86641 9.52730938,191.26286 22.5568626,202.181727 C35.5907208,213.104202 55.0052859,211.41344 65.929221,198.411741 L73.3815264,189.541986 C73.2262339,187.817353 73.1469036,186.070842 73.1469036,184.305818 L73.1469036,99.7631476 C73.1469036,97.73204 73.2519288,95.7254464 73.4568521,93.7484944 Z M188.206029,191.431499 L194.070779,198.411741 C204.994714,211.41344 224.409279,213.104202 237.443137,202.181727 C250.472691,191.26286 252.177266,171.86641 241.257119,158.86922 L188.5282,96.1111089 C188.603698,97.3187558 188.642015,98.5364807 188.642015,99.7631476 L188.642015,184.305818 C188.642015,186.718499 188.493822,189.096591 188.206029,191.431499 Z" id="beeLogo"></path>
    </g>
  </g>
</svg>