<svg version="1" xmlns="http://www.w3.org/2000/svg" width="346.667" height="346.667" viewBox="0 0 260.000000 260.000000"><path d="M88.7 20.8c-2 2.2-2.2 6.5-.4 8 .6.5 3.1 1.5 5.4 2.1C97.6 32 109 41 109 43c0 .4-2.9 2.1-6.4 3.9-3.8 1.9-8.4 5.3-11.4 8.4-4.9 5.1-23.5 27-42.7 50.2-5.4 6.6-10.9 13.1-12.2 14.5-15.1 16.9-29 34.5-31.9 40.6-13.8 28.3 7.9 61.4 39.6 60 11.6-.5 19.5-4 28.1-12.3 4.6-4.4 4.7-4.5 5.4-2.2 1.3 4.4 7.5 13.6 12.1 18.4 10.7 10.8 23.5 16.5 38.4 17.1 16.9.6 29.9-4.1 41.9-15.2 5.4-5.1 12.8-15.2 14.4-19.8.2-.6 2.4.8 4.9 3.1 28.3 25.9 74 3.2 70.4-35-1.3-13.6-2.4-15.3-47.6-68.7-2.1-2.5-11.6-13.7-21-25-21.7-26-25.6-30-33-33.9l-6.1-3.3 2.8-3.2c4.3-5 9.3-8.5 13.6-9.7 4.9-1.3 6.7-3 6.7-6.2s-2.9-5.7-6.6-5.7c-7.3 0-21.8 10.8-25.7 19.2-1.7 3.6-1.8 3.6-8.5 4-11.2.5-12.7 0-16.3-5.7-4.4-6.9-11.4-13.1-17.7-15.5-6.5-2.5-9.4-2.5-11.5-.2zm62 37.7c8.7 4.1 16.9 11.7 20.7 19.3 4.2 8.3 5.6 15.4 5.6 28.9V119h-46c-36.1 0-46-.3-46.1-1.3-.7-8.7.4-26.3 1.9-31.3 8.5-27.1 38.3-40.1 63.9-27.9zm-77.5 83.6l-.2 48.1-5.3 6c-7.8 9-15.1 12.8-25.4 12.9-8.4.2-15-2.6-21.4-9-6.6-6.7-9.3-13.4-9.1-22.5.2-8.1 3.6-14.8 12.9-25.9 4.3-5 8.7-10.3 9.8-11.6 1.1-1.3 4.7-5.6 8.1-9.5 3.3-3.9 11.5-13.7 18.3-21.9C67.7 100.6 73.3 94 73.3 94c.1 0 .1 21.6-.1 48.1zm122.8-37c2.5 2.9 7.2 8.5 10.5 12.4 3.3 3.9 7.8 9.3 10 12 2.2 2.6 4.5 5.3 5 5.9.6.6 4.4 5.1 8.5 10.1 4.1 4.9 8.1 9.7 8.9 10.5.8.8 2.7 3.5 4.3 6 7.5 11.8 6.5 26.6-2.6 36.7-6.8 7.5-12.2 9.8-23.1 9.8-11.1 0-15.4-2-23.5-10.6l-5.5-5.8.2-47.3c.1-26 .2-47.5.3-47.8 0-.3.6.2 1.3 1.1.7.9 3.2 4 5.7 7zm-19.7 25.8c.4.1.7 4.3.7 9.4v9.4h-45.5c-29.5.1-45.7-.3-46.1-.9-.5-.8-.8-14.7-.5-17.8.1-.4 88.6-.5 91.4-.1zm.7 39.7c0 5.2-.3 9.5-.7 9.5-.5.1-21.2.2-46 .3l-45.3.1-.1-4.7c-.1-2.7-.1-5.7-.1-6.8 0-1.1 0-3.3.1-4.9l.1-2.9h92v9.4zm-1.4 24.6c-1 5.2-6 14.9-10 19.4-10 11.5-27.5 17.7-42.6 15.1-16.9-2.9-31.6-16-36.4-32.5l-1.5-5.2h91.2l-.7 3.2z"/></svg>